<svg id="e6KxWDN7inH1" xmlns="http://www.w3.org/2000/svg" xmlns:xlink="http://www.w3.org/1999/xlink" viewBox="0 0 300 300" shape-rendering="geometricPrecision" text-rendering="geometricPrecision">
<style><![CDATA[
#e6KxWDN7inH2_tr {animation: e6KxWDN7inH2_tr__tr 4000ms linear infinite normal forwards}@keyframes e6KxWDN7inH2_tr__tr { 0% {transform: translate(149.990977px,150.000012px) rotate(0deg)} 50% {transform: translate(149.990977px,150.000012px) rotate(180deg)} 97.5% {transform: translate(149.990977px,150.000012px) rotate(360deg)} 100% {transform: translate(149.990977px,150.000012px) rotate(360deg)}} #e6KxWDN7inH2 {animation: e6KxWDN7inH2_c_o 4000ms linear infinite normal forwards}@keyframes e6KxWDN7inH2_c_o { 0% {opacity: 1} 25% {opacity: 0.82} 50% {opacity: 1} 75% {opacity: 0.8} 97.5% {opacity: 1} 100% {opacity: 1}} #e6KxWDN7inH4 {animation: e6KxWDN7inH4_c_o 4000ms linear infinite normal forwards}@keyframes e6KxWDN7inH4_c_o { 0% {opacity: 1} 12.5% {opacity: 0.78} 25% {opacity: 1} 37.5% {opacity: 0.81} 50% {opacity: 1} 62.5% {opacity: 0.71} 75% {opacity: 1} 87.5% {opacity: 0.77} 100% {opacity: 1}}
]]></style>
<g id="e6KxWDN7inH2_tr" transform="translate(149.990977,150.000012) rotate(0)"><g id="e6KxWDN7inH2" transform="translate(-149.990977,-150.000012)"><path d="M254.636,328.742c-57.875,0-121.305-42.287-121.305-94.386c0-52.1,63.411-94.387,121.305-94.387s121.35,42.214,121.35,94.374-63.462,94.387-121.35,94.387m0-228.05c-102.895.004-167.199,111.393-115.747,200.501c51.452,89.106,180.07,89.101,231.513-.011c11.729-20.318,17.904-43.366,17.904-66.827.003-73.823-59.847-133.664-133.67-133.652" transform="matrix(1.030053 0 0 1.030053-112.201102-91.38636)" fill="#0a99d6"/></g></g><path id="e6KxWDN7inH4" d="M188.092,221.296c-1.454-.8-1.326-1.887.268-2.443l113.565-41.127c1.471-.55,2.296.268,1.716,1.795L262.604,293.116c-.61,1.532-1.734,1.617-2.528.182l-25.032-44.435c-1.043-1.606-2.421-2.967-4.042-3.988l-42.91-23.579Z" transform="matrix(1 0 0 0.96-104.551342-74.906106)" fill="#0a99d6" stroke-dashoffset="357.840098" stroke-dasharray="357.840098"/></svg>
